<mxfile host="app.diagrams.net" modified="2023-08-20T21:32:15.961Z" agent="Mozilla/5.0 (Windows NT 10.0; Win64; x64) AppleWebKit/537.36 (KHTML, like Gecko) Chrome/116.0.0.0 Safari/537.36" etag="RMOpN7RZC1Cx3nakNrqH" version="21.6.8" type="github">
  <diagram id="C5RBs43oDa-KdzZeNtuy" name="Page-1">
    <mxGraphModel dx="1313" dy="718" grid="1" gridSize="10" guides="1" tooltips="1" connect="1" arrows="1" fold="1" page="1" pageScale="1" pageWidth="827" pageHeight="1169" math="0" shadow="0">
      <root>
        <mxCell id="WIyWlLk6GJQsqaUBKTNV-0" />
        <mxCell id="WIyWlLk6GJQsqaUBKTNV-1" parent="WIyWlLk6GJQsqaUBKTNV-0" />
        <mxCell id="WIyWlLk6GJQsqaUBKTNV-2" value="" style="rounded=0;html=1;jettySize=auto;orthogonalLoop=1;fontSize=11;endArrow=block;endFill=0;endSize=8;strokeWidth=1;shadow=0;labelBackgroundColor=none;edgeStyle=orthogonalEdgeStyle;" parent="WIyWlLk6GJQsqaUBKTNV-1" source="WIyWlLk6GJQsqaUBKTNV-3" target="WIyWlLk6GJQsqaUBKTNV-6" edge="1">
          <mxGeometry relative="1" as="geometry" />
        </mxCell>
        <mxCell id="WiWO-XPgim8WBg9LtnZ_-75" value="" style="edgeStyle=orthogonalEdgeStyle;rounded=0;orthogonalLoop=1;jettySize=auto;html=1;" edge="1" parent="WIyWlLk6GJQsqaUBKTNV-1" source="WIyWlLk6GJQsqaUBKTNV-3" target="WIyWlLk6GJQsqaUBKTNV-6">
          <mxGeometry relative="1" as="geometry" />
        </mxCell>
        <mxCell id="WIyWlLk6GJQsqaUBKTNV-3" value="Open game" style="rounded=1;whiteSpace=wrap;html=1;fontSize=12;glass=0;strokeWidth=1;shadow=0;" parent="WIyWlLk6GJQsqaUBKTNV-1" vertex="1">
          <mxGeometry x="160" y="80" width="120" height="40" as="geometry" />
        </mxCell>
        <mxCell id="WIyWlLk6GJQsqaUBKTNV-4" value="Yes" style="rounded=0;html=1;jettySize=auto;orthogonalLoop=1;fontSize=11;endArrow=block;endFill=0;endSize=8;strokeWidth=1;shadow=0;labelBackgroundColor=none;edgeStyle=orthogonalEdgeStyle;" parent="WIyWlLk6GJQsqaUBKTNV-1" source="WIyWlLk6GJQsqaUBKTNV-6" target="WIyWlLk6GJQsqaUBKTNV-10" edge="1">
          <mxGeometry y="20" relative="1" as="geometry">
            <mxPoint as="offset" />
          </mxGeometry>
        </mxCell>
        <mxCell id="WIyWlLk6GJQsqaUBKTNV-6" value="Show title screen with background music" style="rhombus;whiteSpace=wrap;html=1;shadow=0;fontFamily=Helvetica;fontSize=12;align=center;strokeWidth=1;spacing=6;spacingTop=-4;" parent="WIyWlLk6GJQsqaUBKTNV-1" vertex="1">
          <mxGeometry x="145" y="170" width="150" height="120" as="geometry" />
        </mxCell>
        <mxCell id="WiWO-XPgim8WBg9LtnZ_-4" value="" style="edgeStyle=orthogonalEdgeStyle;rounded=0;orthogonalLoop=1;jettySize=auto;html=1;" edge="1" parent="WIyWlLk6GJQsqaUBKTNV-1" source="WIyWlLk6GJQsqaUBKTNV-10" target="Ql1dsVLLdPNe8E7h1eDj-0">
          <mxGeometry relative="1" as="geometry" />
        </mxCell>
        <mxCell id="WiWO-XPgim8WBg9LtnZ_-6" value="Yes&lt;br&gt;" style="edgeLabel;html=1;align=center;verticalAlign=middle;resizable=0;points=[];" vertex="1" connectable="0" parent="WiWO-XPgim8WBg9LtnZ_-4">
          <mxGeometry x="0.08" relative="1" as="geometry">
            <mxPoint x="-2" y="-10" as="offset" />
          </mxGeometry>
        </mxCell>
        <mxCell id="WiWO-XPgim8WBg9LtnZ_-46" value="" style="edgeStyle=orthogonalEdgeStyle;rounded=0;orthogonalLoop=1;jettySize=auto;html=1;" edge="1" parent="WIyWlLk6GJQsqaUBKTNV-1" source="WIyWlLk6GJQsqaUBKTNV-10" target="WiWO-XPgim8WBg9LtnZ_-45">
          <mxGeometry relative="1" as="geometry" />
        </mxCell>
        <mxCell id="WiWO-XPgim8WBg9LtnZ_-49" value="No" style="edgeLabel;html=1;align=center;verticalAlign=middle;resizable=0;points=[];" vertex="1" connectable="0" parent="WiWO-XPgim8WBg9LtnZ_-46">
          <mxGeometry x="-0.0182" y="-1" relative="1" as="geometry">
            <mxPoint y="-9" as="offset" />
          </mxGeometry>
        </mxCell>
        <mxCell id="WIyWlLk6GJQsqaUBKTNV-10" value="Pressed New Game?" style="rhombus;whiteSpace=wrap;html=1;shadow=0;fontFamily=Helvetica;fontSize=12;align=center;strokeWidth=1;spacing=6;spacingTop=-4;" parent="WIyWlLk6GJQsqaUBKTNV-1" vertex="1">
          <mxGeometry x="170" y="320" width="100" height="80" as="geometry" />
        </mxCell>
        <mxCell id="WiWO-XPgim8WBg9LtnZ_-5" value="" style="edgeStyle=orthogonalEdgeStyle;rounded=0;orthogonalLoop=1;jettySize=auto;html=1;" edge="1" parent="WIyWlLk6GJQsqaUBKTNV-1" source="Ql1dsVLLdPNe8E7h1eDj-0" target="WiWO-XPgim8WBg9LtnZ_-1">
          <mxGeometry relative="1" as="geometry" />
        </mxCell>
        <mxCell id="WiWO-XPgim8WBg9LtnZ_-24" value="" style="edgeStyle=orthogonalEdgeStyle;rounded=0;orthogonalLoop=1;jettySize=auto;html=1;" edge="1" parent="WIyWlLk6GJQsqaUBKTNV-1" source="Ql1dsVLLdPNe8E7h1eDj-0" target="WiWO-XPgim8WBg9LtnZ_-13">
          <mxGeometry relative="1" as="geometry" />
        </mxCell>
        <mxCell id="WiWO-XPgim8WBg9LtnZ_-26" value="Yes&lt;br&gt;" style="edgeLabel;html=1;align=center;verticalAlign=middle;resizable=0;points=[];" vertex="1" connectable="0" parent="WiWO-XPgim8WBg9LtnZ_-24">
          <mxGeometry x="-0.0114" y="-1" relative="1" as="geometry">
            <mxPoint y="-11" as="offset" />
          </mxGeometry>
        </mxCell>
        <mxCell id="WiWO-XPgim8WBg9LtnZ_-85" value="" style="edgeStyle=orthogonalEdgeStyle;rounded=0;orthogonalLoop=1;jettySize=auto;html=1;" edge="1" parent="WIyWlLk6GJQsqaUBKTNV-1" source="Ql1dsVLLdPNe8E7h1eDj-0" target="WiWO-XPgim8WBg9LtnZ_-84">
          <mxGeometry relative="1" as="geometry" />
        </mxCell>
        <mxCell id="Ql1dsVLLdPNe8E7h1eDj-0" value="Show main game scene?" style="rhombus;whiteSpace=wrap;html=1;" parent="WIyWlLk6GJQsqaUBKTNV-1" vertex="1">
          <mxGeometry x="320" y="310" width="100" height="100" as="geometry" />
        </mxCell>
        <mxCell id="WiWO-XPgim8WBg9LtnZ_-12" value="" style="edgeStyle=orthogonalEdgeStyle;rounded=0;orthogonalLoop=1;jettySize=auto;html=1;" edge="1" parent="WIyWlLk6GJQsqaUBKTNV-1" source="WiWO-XPgim8WBg9LtnZ_-1" target="WiWO-XPgim8WBg9LtnZ_-11">
          <mxGeometry relative="1" as="geometry" />
        </mxCell>
        <mxCell id="WiWO-XPgim8WBg9LtnZ_-14" value="Yes" style="edgeLabel;html=1;align=center;verticalAlign=middle;resizable=0;points=[];" vertex="1" connectable="0" parent="WiWO-XPgim8WBg9LtnZ_-12">
          <mxGeometry x="-0.1021" y="1" relative="1" as="geometry">
            <mxPoint x="-21" y="-2" as="offset" />
          </mxGeometry>
        </mxCell>
        <mxCell id="WiWO-XPgim8WBg9LtnZ_-1" value="Pressed WASD? or D-Pad controller" style="rhombus;whiteSpace=wrap;html=1;shadow=0;fontFamily=Helvetica;fontSize=12;align=center;strokeWidth=1;spacing=6;spacingTop=-4;" vertex="1" parent="WIyWlLk6GJQsqaUBKTNV-1">
          <mxGeometry x="301.25" y="460" width="137.5" height="110" as="geometry" />
        </mxCell>
        <mxCell id="WiWO-XPgim8WBg9LtnZ_-42" value="" style="edgeStyle=orthogonalEdgeStyle;rounded=0;orthogonalLoop=1;jettySize=auto;html=1;" edge="1" parent="WIyWlLk6GJQsqaUBKTNV-1" source="WiWO-XPgim8WBg9LtnZ_-11" target="WiWO-XPgim8WBg9LtnZ_-41">
          <mxGeometry relative="1" as="geometry" />
        </mxCell>
        <mxCell id="WiWO-XPgim8WBg9LtnZ_-71" value="No" style="edgeLabel;html=1;align=center;verticalAlign=middle;resizable=0;points=[];" vertex="1" connectable="0" parent="WiWO-XPgim8WBg9LtnZ_-42">
          <mxGeometry x="0.2298" y="-1" relative="1" as="geometry">
            <mxPoint as="offset" />
          </mxGeometry>
        </mxCell>
        <mxCell id="WiWO-XPgim8WBg9LtnZ_-65" value="" style="edgeStyle=orthogonalEdgeStyle;rounded=0;orthogonalLoop=1;jettySize=auto;html=1;" edge="1" parent="WIyWlLk6GJQsqaUBKTNV-1" source="WiWO-XPgim8WBg9LtnZ_-11" target="WiWO-XPgim8WBg9LtnZ_-64">
          <mxGeometry relative="1" as="geometry" />
        </mxCell>
        <mxCell id="WiWO-XPgim8WBg9LtnZ_-11" value="Move Character with moving animation and sound effects" style="rounded=1;whiteSpace=wrap;html=1;" vertex="1" parent="WIyWlLk6GJQsqaUBKTNV-1">
          <mxGeometry x="310" y="607.5" width="120" height="60" as="geometry" />
        </mxCell>
        <mxCell id="WiWO-XPgim8WBg9LtnZ_-34" value="" style="edgeStyle=orthogonalEdgeStyle;rounded=0;orthogonalLoop=1;jettySize=auto;html=1;" edge="1" parent="WIyWlLk6GJQsqaUBKTNV-1" source="WiWO-XPgim8WBg9LtnZ_-13" target="WiWO-XPgim8WBg9LtnZ_-33">
          <mxGeometry relative="1" as="geometry" />
        </mxCell>
        <mxCell id="WiWO-XPgim8WBg9LtnZ_-13" value="Start Idle animation and background" style="rounded=1;whiteSpace=wrap;html=1;" vertex="1" parent="WIyWlLk6GJQsqaUBKTNV-1">
          <mxGeometry x="487.5" y="330" width="120" height="60" as="geometry" />
        </mxCell>
        <mxCell id="WiWO-XPgim8WBg9LtnZ_-29" value="" style="endArrow=classic;html=1;rounded=0;exitX=1;exitY=0;exitDx=0;exitDy=0;entryX=0;entryY=1;entryDx=0;entryDy=0;" edge="1" parent="WIyWlLk6GJQsqaUBKTNV-1" source="WiWO-XPgim8WBg9LtnZ_-1" target="WiWO-XPgim8WBg9LtnZ_-13">
          <mxGeometry width="50" height="50" relative="1" as="geometry">
            <mxPoint x="190" y="620" as="sourcePoint" />
            <mxPoint x="390" y="550" as="targetPoint" />
          </mxGeometry>
        </mxCell>
        <mxCell id="WiWO-XPgim8WBg9LtnZ_-30" value="No" style="edgeLabel;html=1;align=center;verticalAlign=middle;resizable=0;points=[];" vertex="1" connectable="0" parent="WiWO-XPgim8WBg9LtnZ_-29">
          <mxGeometry x="-0.0198" y="-1" relative="1" as="geometry">
            <mxPoint x="-7" y="-10" as="offset" />
          </mxGeometry>
        </mxCell>
        <mxCell id="WiWO-XPgim8WBg9LtnZ_-36" value="" style="edgeStyle=orthogonalEdgeStyle;rounded=0;orthogonalLoop=1;jettySize=auto;html=1;" edge="1" parent="WIyWlLk6GJQsqaUBKTNV-1" source="WiWO-XPgim8WBg9LtnZ_-33" target="WiWO-XPgim8WBg9LtnZ_-35">
          <mxGeometry relative="1" as="geometry" />
        </mxCell>
        <mxCell id="WiWO-XPgim8WBg9LtnZ_-38" value="Yes" style="edgeLabel;html=1;align=center;verticalAlign=middle;resizable=0;points=[];" vertex="1" connectable="0" parent="WiWO-XPgim8WBg9LtnZ_-36">
          <mxGeometry x="-0.1336" y="-1" relative="1" as="geometry">
            <mxPoint x="-16" as="offset" />
          </mxGeometry>
        </mxCell>
        <mxCell id="WiWO-XPgim8WBg9LtnZ_-33" value="Pressed space?" style="rhombus;whiteSpace=wrap;html=1;rounded=1;" vertex="1" parent="WIyWlLk6GJQsqaUBKTNV-1">
          <mxGeometry x="507.5" y="470" width="80" height="80" as="geometry" />
        </mxCell>
        <mxCell id="WiWO-XPgim8WBg9LtnZ_-40" value="" style="edgeStyle=orthogonalEdgeStyle;rounded=0;orthogonalLoop=1;jettySize=auto;html=1;" edge="1" parent="WIyWlLk6GJQsqaUBKTNV-1" source="WiWO-XPgim8WBg9LtnZ_-35" target="WiWO-XPgim8WBg9LtnZ_-39">
          <mxGeometry relative="1" as="geometry" />
        </mxCell>
        <mxCell id="WiWO-XPgim8WBg9LtnZ_-35" value="Start attack / interact animation" style="whiteSpace=wrap;html=1;rounded=1;" vertex="1" parent="WIyWlLk6GJQsqaUBKTNV-1">
          <mxGeometry x="487.5" y="607.5" width="120" height="60" as="geometry" />
        </mxCell>
        <mxCell id="WiWO-XPgim8WBg9LtnZ_-55" value="" style="edgeStyle=orthogonalEdgeStyle;rounded=0;orthogonalLoop=1;jettySize=auto;html=1;" edge="1" parent="WIyWlLk6GJQsqaUBKTNV-1" source="WiWO-XPgim8WBg9LtnZ_-39" target="WiWO-XPgim8WBg9LtnZ_-54">
          <mxGeometry relative="1" as="geometry" />
        </mxCell>
        <mxCell id="WiWO-XPgim8WBg9LtnZ_-56" value="Yes" style="edgeLabel;html=1;align=center;verticalAlign=middle;resizable=0;points=[];" vertex="1" connectable="0" parent="WiWO-XPgim8WBg9LtnZ_-55">
          <mxGeometry x="0.1827" y="-2" relative="1" as="geometry">
            <mxPoint x="-15" y="-8" as="offset" />
          </mxGeometry>
        </mxCell>
        <mxCell id="WiWO-XPgim8WBg9LtnZ_-58" value="" style="edgeStyle=orthogonalEdgeStyle;rounded=0;orthogonalLoop=1;jettySize=auto;html=1;" edge="1" parent="WIyWlLk6GJQsqaUBKTNV-1" source="WiWO-XPgim8WBg9LtnZ_-39" target="WiWO-XPgim8WBg9LtnZ_-57">
          <mxGeometry relative="1" as="geometry" />
        </mxCell>
        <mxCell id="WiWO-XPgim8WBg9LtnZ_-60" value="No" style="edgeLabel;html=1;align=center;verticalAlign=middle;resizable=0;points=[];" vertex="1" connectable="0" parent="WiWO-XPgim8WBg9LtnZ_-58">
          <mxGeometry x="-0.0439" y="3" relative="1" as="geometry">
            <mxPoint y="-14" as="offset" />
          </mxGeometry>
        </mxCell>
        <mxCell id="WiWO-XPgim8WBg9LtnZ_-39" value="In range of interactable object?" style="rhombus;whiteSpace=wrap;html=1;rounded=1;" vertex="1" parent="WIyWlLk6GJQsqaUBKTNV-1">
          <mxGeometry x="507.5" y="737.5" width="80" height="80" as="geometry" />
        </mxCell>
        <mxCell id="WiWO-XPgim8WBg9LtnZ_-62" value="" style="edgeStyle=orthogonalEdgeStyle;rounded=0;orthogonalLoop=1;jettySize=auto;html=1;" edge="1" parent="WIyWlLk6GJQsqaUBKTNV-1" source="WiWO-XPgim8WBg9LtnZ_-41" target="WiWO-XPgim8WBg9LtnZ_-61">
          <mxGeometry relative="1" as="geometry" />
        </mxCell>
        <mxCell id="WiWO-XPgim8WBg9LtnZ_-63" value="Yes" style="edgeLabel;html=1;align=center;verticalAlign=middle;resizable=0;points=[];" vertex="1" connectable="0" parent="WiWO-XPgim8WBg9LtnZ_-62">
          <mxGeometry x="-0.3882" y="2" relative="1" as="geometry">
            <mxPoint x="-22" y="13" as="offset" />
          </mxGeometry>
        </mxCell>
        <mxCell id="WiWO-XPgim8WBg9LtnZ_-41" value="Is character moving in to a wall?" style="rhombus;whiteSpace=wrap;html=1;rounded=1;" vertex="1" parent="WIyWlLk6GJQsqaUBKTNV-1">
          <mxGeometry x="321.88" y="701" width="96.25" height="95" as="geometry" />
        </mxCell>
        <mxCell id="WiWO-XPgim8WBg9LtnZ_-45" value="Pressed Quit Game?" style="rhombus;whiteSpace=wrap;html=1;shadow=0;fontFamily=Helvetica;fontSize=12;align=center;strokeWidth=1;spacing=6;spacingTop=-4;" vertex="1" parent="WIyWlLk6GJQsqaUBKTNV-1">
          <mxGeometry x="170" y="430" width="100" height="80" as="geometry" />
        </mxCell>
        <mxCell id="WiWO-XPgim8WBg9LtnZ_-54" value="Show dialog box" style="whiteSpace=wrap;html=1;rounded=1;" vertex="1" parent="WIyWlLk6GJQsqaUBKTNV-1">
          <mxGeometry x="487.5" y="870" width="120" height="60" as="geometry" />
        </mxCell>
        <mxCell id="WiWO-XPgim8WBg9LtnZ_-57" value="Dont show dialog box" style="whiteSpace=wrap;html=1;rounded=1;" vertex="1" parent="WIyWlLk6GJQsqaUBKTNV-1">
          <mxGeometry x="647.5" y="747.5" width="120" height="60" as="geometry" />
        </mxCell>
        <mxCell id="WiWO-XPgim8WBg9LtnZ_-61" value="Character will be stopped from moving but has still animations / sound effects" style="whiteSpace=wrap;html=1;rounded=1;" vertex="1" parent="WIyWlLk6GJQsqaUBKTNV-1">
          <mxGeometry x="305" y="865" width="130" height="70" as="geometry" />
        </mxCell>
        <mxCell id="WiWO-XPgim8WBg9LtnZ_-67" value="" style="edgeStyle=orthogonalEdgeStyle;rounded=0;orthogonalLoop=1;jettySize=auto;html=1;" edge="1" parent="WIyWlLk6GJQsqaUBKTNV-1" source="WiWO-XPgim8WBg9LtnZ_-64" target="WiWO-XPgim8WBg9LtnZ_-66">
          <mxGeometry relative="1" as="geometry" />
        </mxCell>
        <mxCell id="WiWO-XPgim8WBg9LtnZ_-68" value="Yes" style="edgeLabel;html=1;align=center;verticalAlign=middle;resizable=0;points=[];" vertex="1" connectable="0" parent="WiWO-XPgim8WBg9LtnZ_-67">
          <mxGeometry x="-0.0159" relative="1" as="geometry">
            <mxPoint x="-16" as="offset" />
          </mxGeometry>
        </mxCell>
        <mxCell id="WiWO-XPgim8WBg9LtnZ_-64" value="Is character moving in to a number?" style="rhombus;whiteSpace=wrap;html=1;rounded=1;" vertex="1" parent="WIyWlLk6GJQsqaUBKTNV-1">
          <mxGeometry x="120" y="591.25" width="92.5" height="92.5" as="geometry" />
        </mxCell>
        <mxCell id="WiWO-XPgim8WBg9LtnZ_-74" value="" style="edgeStyle=orthogonalEdgeStyle;rounded=0;orthogonalLoop=1;jettySize=auto;html=1;" edge="1" parent="WIyWlLk6GJQsqaUBKTNV-1" source="WiWO-XPgim8WBg9LtnZ_-66" target="WiWO-XPgim8WBg9LtnZ_-73">
          <mxGeometry relative="1" as="geometry" />
        </mxCell>
        <mxCell id="WiWO-XPgim8WBg9LtnZ_-66" value="Push object" style="whiteSpace=wrap;html=1;rounded=1;" vertex="1" parent="WIyWlLk6GJQsqaUBKTNV-1">
          <mxGeometry x="129.38" y="730" width="73.75" height="31.5" as="geometry" />
        </mxCell>
        <mxCell id="WiWO-XPgim8WBg9LtnZ_-77" value="" style="edgeStyle=orthogonalEdgeStyle;rounded=0;orthogonalLoop=1;jettySize=auto;html=1;" edge="1" parent="WIyWlLk6GJQsqaUBKTNV-1" source="WiWO-XPgim8WBg9LtnZ_-73" target="WiWO-XPgim8WBg9LtnZ_-76">
          <mxGeometry relative="1" as="geometry" />
        </mxCell>
        <mxCell id="WiWO-XPgim8WBg9LtnZ_-78" value="Yes" style="edgeLabel;html=1;align=center;verticalAlign=middle;resizable=0;points=[];" vertex="1" connectable="0" parent="WiWO-XPgim8WBg9LtnZ_-77">
          <mxGeometry x="-0.0389" y="2" relative="1" as="geometry">
            <mxPoint x="-18" as="offset" />
          </mxGeometry>
        </mxCell>
        <mxCell id="WiWO-XPgim8WBg9LtnZ_-80" value="" style="edgeStyle=orthogonalEdgeStyle;rounded=0;orthogonalLoop=1;jettySize=auto;html=1;" edge="1" parent="WIyWlLk6GJQsqaUBKTNV-1" source="WiWO-XPgim8WBg9LtnZ_-73" target="WiWO-XPgim8WBg9LtnZ_-79">
          <mxGeometry relative="1" as="geometry" />
        </mxCell>
        <mxCell id="WiWO-XPgim8WBg9LtnZ_-81" value="No" style="edgeLabel;html=1;align=center;verticalAlign=middle;resizable=0;points=[];" vertex="1" connectable="0" parent="WiWO-XPgim8WBg9LtnZ_-80">
          <mxGeometry x="-0.2425" y="-1" relative="1" as="geometry">
            <mxPoint x="-19" y="-2" as="offset" />
          </mxGeometry>
        </mxCell>
        <mxCell id="WiWO-XPgim8WBg9LtnZ_-73" value="Object on the pressure plate?" style="rhombus;whiteSpace=wrap;html=1;rounded=1;" vertex="1" parent="WIyWlLk6GJQsqaUBKTNV-1">
          <mxGeometry x="109.87" y="807.5" width="112.75" height="112.75" as="geometry" />
        </mxCell>
        <mxCell id="WiWO-XPgim8WBg9LtnZ_-76" value="Open door" style="whiteSpace=wrap;html=1;rounded=1;" vertex="1" parent="WIyWlLk6GJQsqaUBKTNV-1">
          <mxGeometry x="129.36" y="980" width="73.76" height="30" as="geometry" />
        </mxCell>
        <mxCell id="WiWO-XPgim8WBg9LtnZ_-79" value="Keep door close" style="whiteSpace=wrap;html=1;rounded=1;" vertex="1" parent="WIyWlLk6GJQsqaUBKTNV-1">
          <mxGeometry x="10" y="898.8699999999999" width="89.99" height="36.13" as="geometry" />
        </mxCell>
        <mxCell id="WiWO-XPgim8WBg9LtnZ_-89" value="" style="edgeStyle=orthogonalEdgeStyle;rounded=0;orthogonalLoop=1;jettySize=auto;html=1;" edge="1" parent="WIyWlLk6GJQsqaUBKTNV-1" source="WiWO-XPgim8WBg9LtnZ_-84" target="WiWO-XPgim8WBg9LtnZ_-88">
          <mxGeometry relative="1" as="geometry" />
        </mxCell>
        <mxCell id="WiWO-XPgim8WBg9LtnZ_-90" value="Yes" style="edgeLabel;html=1;align=center;verticalAlign=middle;resizable=0;points=[];" vertex="1" connectable="0" parent="WiWO-XPgim8WBg9LtnZ_-89">
          <mxGeometry x="-0.1571" y="1" relative="1" as="geometry">
            <mxPoint x="-1" y="-9" as="offset" />
          </mxGeometry>
        </mxCell>
        <mxCell id="WiWO-XPgim8WBg9LtnZ_-84" value="Pressed escaped?" style="rhombus;whiteSpace=wrap;html=1;" vertex="1" parent="WIyWlLk6GJQsqaUBKTNV-1">
          <mxGeometry x="320" y="130" width="100" height="100" as="geometry" />
        </mxCell>
        <mxCell id="WiWO-XPgim8WBg9LtnZ_-93" value="" style="edgeStyle=orthogonalEdgeStyle;rounded=0;orthogonalLoop=1;jettySize=auto;html=1;" edge="1" parent="WIyWlLk6GJQsqaUBKTNV-1" source="WiWO-XPgim8WBg9LtnZ_-88" target="WiWO-XPgim8WBg9LtnZ_-92">
          <mxGeometry relative="1" as="geometry" />
        </mxCell>
        <mxCell id="WiWO-XPgim8WBg9LtnZ_-98" value="" style="edgeStyle=orthogonalEdgeStyle;rounded=0;orthogonalLoop=1;jettySize=auto;html=1;" edge="1" parent="WIyWlLk6GJQsqaUBKTNV-1" source="WiWO-XPgim8WBg9LtnZ_-88" target="WiWO-XPgim8WBg9LtnZ_-97">
          <mxGeometry relative="1" as="geometry" />
        </mxCell>
        <mxCell id="WiWO-XPgim8WBg9LtnZ_-88" value="Show paused menu" style="rounded=1;whiteSpace=wrap;html=1;" vertex="1" parent="WIyWlLk6GJQsqaUBKTNV-1">
          <mxGeometry x="490" y="150" width="120" height="60" as="geometry" />
        </mxCell>
        <mxCell id="WiWO-XPgim8WBg9LtnZ_-95" value="" style="edgeStyle=orthogonalEdgeStyle;rounded=0;orthogonalLoop=1;jettySize=auto;html=1;" edge="1" parent="WIyWlLk6GJQsqaUBKTNV-1" source="WiWO-XPgim8WBg9LtnZ_-92" target="WiWO-XPgim8WBg9LtnZ_-94">
          <mxGeometry relative="1" as="geometry" />
        </mxCell>
        <mxCell id="WiWO-XPgim8WBg9LtnZ_-96" value="Yes" style="edgeLabel;html=1;align=center;verticalAlign=middle;resizable=0;points=[];" vertex="1" connectable="0" parent="WiWO-XPgim8WBg9LtnZ_-95">
          <mxGeometry x="-0.3917" y="1" relative="1" as="geometry">
            <mxPoint x="1" y="-9" as="offset" />
          </mxGeometry>
        </mxCell>
        <mxCell id="WiWO-XPgim8WBg9LtnZ_-92" value="Pressed resume?" style="rhombus;whiteSpace=wrap;html=1;rounded=1;" vertex="1" parent="WIyWlLk6GJQsqaUBKTNV-1">
          <mxGeometry x="510" width="80" height="80" as="geometry" />
        </mxCell>
        <mxCell id="WiWO-XPgim8WBg9LtnZ_-94" value="Resume game" style="whiteSpace=wrap;html=1;rounded=1;" vertex="1" parent="WIyWlLk6GJQsqaUBKTNV-1">
          <mxGeometry x="650" y="10" width="120" height="60" as="geometry" />
        </mxCell>
        <mxCell id="WiWO-XPgim8WBg9LtnZ_-108" value="" style="edgeStyle=orthogonalEdgeStyle;rounded=0;orthogonalLoop=1;jettySize=auto;html=1;" edge="1" parent="WIyWlLk6GJQsqaUBKTNV-1" source="WiWO-XPgim8WBg9LtnZ_-97" target="WiWO-XPgim8WBg9LtnZ_-107">
          <mxGeometry relative="1" as="geometry" />
        </mxCell>
        <mxCell id="WiWO-XPgim8WBg9LtnZ_-109" value="Yes" style="edgeLabel;html=1;align=center;verticalAlign=middle;resizable=0;points=[];" vertex="1" connectable="0" parent="WiWO-XPgim8WBg9LtnZ_-108">
          <mxGeometry x="-0.551" y="-4" relative="1" as="geometry">
            <mxPoint x="-16" y="7" as="offset" />
          </mxGeometry>
        </mxCell>
        <mxCell id="WiWO-XPgim8WBg9LtnZ_-97" value="Selected Quit to main?" style="rhombus;whiteSpace=wrap;html=1;rounded=1;" vertex="1" parent="WIyWlLk6GJQsqaUBKTNV-1">
          <mxGeometry x="710" y="140" width="80" height="80" as="geometry" />
        </mxCell>
        <mxCell id="WiWO-XPgim8WBg9LtnZ_-100" value="" style="edgeStyle=orthogonalEdgeStyle;rounded=0;orthogonalLoop=1;jettySize=auto;html=1;" edge="1" parent="WIyWlLk6GJQsqaUBKTNV-1" source="WiWO-XPgim8WBg9LtnZ_-45" target="WiWO-XPgim8WBg9LtnZ_-52">
          <mxGeometry relative="1" as="geometry">
            <mxPoint x="170" y="470" as="sourcePoint" />
            <mxPoint x="-50" y="360" as="targetPoint" />
          </mxGeometry>
        </mxCell>
        <mxCell id="WiWO-XPgim8WBg9LtnZ_-101" value="Yes" style="edgeLabel;html=1;align=center;verticalAlign=middle;resizable=0;points=[];" vertex="1" connectable="0" parent="WiWO-XPgim8WBg9LtnZ_-100">
          <mxGeometry x="-0.2636" y="-1" relative="1" as="geometry">
            <mxPoint y="-9" as="offset" />
          </mxGeometry>
        </mxCell>
        <mxCell id="WiWO-XPgim8WBg9LtnZ_-52" value="Exit game" style="rounded=1;whiteSpace=wrap;html=1;" vertex="1" parent="WIyWlLk6GJQsqaUBKTNV-1">
          <mxGeometry x="30" y="455" width="90" height="30" as="geometry" />
        </mxCell>
        <mxCell id="WiWO-XPgim8WBg9LtnZ_-107" value="Show title screen" style="whiteSpace=wrap;html=1;rounded=1;" vertex="1" parent="WIyWlLk6GJQsqaUBKTNV-1">
          <mxGeometry x="690" y="280" width="120" height="60" as="geometry" />
        </mxCell>
      </root>
    </mxGraphModel>
  </diagram>
</mxfile>
